<?xml version="1.0" encoding="UTF-8"?>
<svg id="Layer_2" data-name="Layer 2" xmlns="http://www.w3.org/2000/svg" xmlns:xlink="http://www.w3.org/1999/xlink" viewBox="0 0 189.65 263.16">
  <defs>
    <style>
      .cls-1 {
        fill: #0083ca;
      }

      .cls-2 {
        fill: url(#linear-gradient-2);
      }

      .cls-3 {
        fill: #fff;
      }

      .cls-4 {
        fill: #f26522;
      }

      .cls-5 {
        fill: #f15a22;
      }

      .cls-6 {
        fill: #f27fb2;
      }

      .cls-7 {
        fill: #00bdf2;
      }

      .cls-8 {
        fill: #fd0;
      }

      .cls-9 {
        fill: #95c93d;
      }

      .cls-10 {
        fill: #8781bd;
      }

      .cls-11 {
        stroke: #005baa;
        stroke-width: .75px;
      }

      .cls-11, .cls-12 {
        fill: none;
        stroke-linecap: round;
        stroke-linejoin: round;
      }

      .cls-13 {
        fill: url(#linear-gradient-3);
      }

      .cls-14 {
        fill: url(#linear-gradient);
      }

      .cls-12 {
        stroke: #000;
        stroke-width: 2px;
      }
    </style>
    <linearGradient id="linear-gradient" x1="10.46" y1="198.14" x2="112.46" y2="205.14" gradientUnits="userSpaceOnUse">
      <stop offset="0" stop-color="#0083ca"/>
      <stop offset="1" stop-color="#006cb7"/>
    </linearGradient>
    <linearGradient id="linear-gradient-2" x1="51.08" y1="76.69" x2="59.08" y2="84.19" xlink:href="#linear-gradient"/>
    <linearGradient id="linear-gradient-3" x1="147.33" y1="76.54" x2="138.83" y2="85.29" xlink:href="#linear-gradient"/>
  </defs>
  <g id="Layer_1-2" data-name="Layer 1">
    <g>
      <path class="cls-1" d="m147.18,160.23s17.27-4.54,28.3-22.74c0,0,4.09-7.1-2.71-10.4-8.74-4.24-13.8,15.05-29.05,19.67,0,0-6.7,2.53-4.49,8.84,2.22,6.3,7.95,4.63,7.95,4.63Z"/>
      <path class="cls-11" d="m166.6,131.55s5.97.7,5.09,2.86c-.87,2.16-4.22.96-4.22.96l.76,3.33"/>
      <path class="cls-1" d="m51.87,160.23s-17.27-4.54-28.3-22.74c0,0-4.09-7.1,2.71-10.4,8.74-4.24,13.8,15.05,29.05,19.67,0,0,6.7,2.53,4.49,8.84-2.22,6.3-7.95,4.63-7.95,4.63Z"/>
      <path class="cls-11" d="m32.44,131.55s-5.97.7-5.09,2.86c.87,2.16,4.22.96,4.22.96l-.76,3.33"/>
      <path class="cls-14" d="m110.92,239.25c-3.95,0-6.81-.28-7.68-.38l2.18-19.88c6.32.67,21.05.29,26.19-5.18.69-.73,2.5-2.66,1.55-8.24-.89-5.25-3.54-7.1-28.02-5.65-21.78,1.29-51.59,3.07-69.62-21.74l16.28-11.62c11.59,15.95,32.16,14.58,52.15,13.39,10.34-.62,20.1-1.19,28.38.77,14.54,3.44,19.19,13.58,20.54,21.49,2.17,12.74-2.46,20.81-6.73,25.34-9.47,10.04-25.6,11.7-35.23,11.7Z"/>
      <path class="cls-1" d="m90.98,234.14c-.5,13.38-7.09,18.05-7.09,18.05,0,0,6.42,8.37.92,10.79-5.5,2.42-20.43-21-7.47-17.97,0,0,2.89-4.13,2.77-10.88"/>
      <path class="cls-1" d="m105.9,234.14c.5,13.38,7.09,18.05,7.09,18.05,0,0-6.42,8.37-.92,10.79,5.5,2.42,20.42-21,7.47-17.97,0,0-2.89-4.13-2.77-10.88"/>
      <path class="cls-8" d="m35.56,178.23s2.13,1.7,4.84-.26c2.33-1.69,2.11-4.02,2.11-4.02,0,0,1.55,1.16,3.03.12,1.36-.96,1.2-2.91,1.2-2.91,0,0,1.72,1.3,3.91-.57,2.19-1.87,1.16-4.03,1.16-4.03,0,0-17.5-12.47-20.44-11.96-2.86.5,4.19,23.62,4.19,23.62Z"/>
      <path d="m31.37,154.61c-.97.17-.79,2.98-.14,6.6,1.36-.45,3.8-1.59,5.72-4.31-2.58-1.46-4.72-2.44-5.59-2.29Z"/>
      <g>
        <path class="cls-2" d="m63.1,80.97c0,4.12-3.34,7.46-7.46,7.46s-7.46-3.34-7.46-7.46,3.34-7.46,7.46-7.46,7.46,3.34,7.46,7.46Z"/>
        <path class="cls-13" d="m150.49,80.97c0,4.12-3.34,7.46-7.46,7.46s-7.46-3.34-7.46-7.46,3.34-7.46,7.46-7.46,7.46,3.34,7.46,7.46Z"/>
      </g>
      <path class="cls-1" d="m99.33,244.62c11.16,0,39.88-4.09,39.88-33.7,0-53.36,15.83-72,15.83-94.81,0-54.3-55.71-52.65-55.71-52.65,0,0-55.71-1.65-55.71,52.65,0,22.81,15.83,41.44,15.83,94.81,0,29.62,28.72,33.7,39.88,33.7Z"/>
      <path class="cls-3" d="m111.59,106.63c0,5.13-5.49,9.28-12.25,9.28s-12.26-4.16-12.26-9.28,5.49-9.28,12.26-9.28,12.25,4.16,12.25,9.28Z"/>
      <path d="m103.51,101.1c0,1.38-1.87,2.51-4.18,2.51s-4.18-1.12-4.18-2.51,1.87-2.51,4.18-2.51,4.18,1.12,4.18,2.51Z"/>
      <path class="cls-8" d="m139.28,210.92c0-35.09,6.84-55.16,11.53-71.28-52.26,3.99-90.69.84-102.96-.44,4.69,16.19,11.66,36.31,11.66,71.72,0,29.62,28.72,33.7,39.88,33.7s39.88-4.09,39.88-33.7Z"/>
      <circle class="cls-3" cx="71.64" cy="96.66" r="8.23" transform="translate(-25.46 167.7) rotate(-89.64)"/>
      <path class="cls-3" d="m135.26,96.66c0,4.55-3.69,8.23-8.23,8.23s-8.23-3.68-8.23-8.23,3.69-8.23,8.23-8.23,8.23,3.68,8.23,8.23Z"/>
      <g>
        <path class="cls-4" d="m67.7,110.81c0,2.82-3.16,5.11-7.05,5.11s-7.06-2.28-7.06-5.11,3.16-5.11,7.06-5.11,7.05,2.29,7.05,5.11Z"/>
        <path class="cls-4" d="m145.08,110.81c0,2.82-3.16,5.11-7.06,5.11s-7.05-2.28-7.05-5.11,3.16-5.11,7.05-5.11,7.06,2.29,7.06,5.11Z"/>
      </g>
      <path class="cls-4" d="m99.4,205.96c21.28,0,31.36-24.1,19.68-31.17-10.98-6.66-19.68,2.18-19.68,2.18,0,0-8.7-8.84-19.68-2.18-11.68,7.08-1.6,31.17,19.68,31.17Z"/>
      <g>
        <path class="cls-3" d="m84.42,190.81c-.26.5-.5,1.06-1.16,1.06-.71,0-.89-.4-1.16-.97l-2.43-5.37c-.37-.79-.48-.94-.95-1.01-.24-.04-.37-.22-.37-.48,0-.94,1.94-.99,2.56-.99,2.56,0,2.46.61,2.46.79,0,.46-.59.49-.59.82,0,.26.47,1.21.77,1.84.11.21.24.68.51.7.4.03.61-.66.76-.91.15-.29.71-1.39.71-1.68,0-.44-.62-.32-.62-.8,0-.76,1.54-.74,2.02-.74,1.54,0,1.79.28,1.79.71,0,.33-.24.49-.54.52-.52.06-.57.03-1.04.96l-2.74,5.56Z"/>
        <path class="cls-3" d="m92.6,189.48c0,1.44.72.92.72,1.56,0,.83-1.55.83-2.1.83-2.1,0-2.18-.48-2.18-.77,0-.44.5-.46.65-.84.16-.43.18-2.2.05-2.65-.11-.43-.73-.29-.73-.84,0-.87,3.1-1.23,3.22-1.23.37,0,.38.28.38.54v3.4Zm-2.41-4.33c-.51,0-1.06-.23-1.06-.83,0-.8,1.61-1.13,2.23-1.13.49,0,1.18.16,1.18.77,0,.95-1.66,1.19-2.35,1.19Z"/>
        <path class="cls-3" d="m96.98,185.58c.22.04.41.09.5.09.12,0,.22-.04.33-.09.11-.04.22-.07.33-.07.56,0,1.12,1.12,1.12,1.62,0,.33-.28.57-.6.57-.7,0-1.08-.96-1.62-.96-.22,0-.44.18-.44.41,0,.78,2.68.93,2.68,2.82,0,1.15-1.11,1.94-2.38,1.94-.24,0-.6-.04-.9-.09-.3-.04-.57-.07-.64-.07-.09,0-.16.01-.24.03-.07.01-.15.02-.23.02-.24,0-.37-.04-.54-.23-.3-.34-.61-1.04-.61-1.5,0-.32.11-.57.46-.57.54,0,1.02,1.21,1.7,1.21.24,0,.48-.12.48-.39,0-.72-2.39-.8-2.39-2.82,0-1.22,1-1.99,2.26-1.99.24,0,.5.03.73.07Z"/>
        <path class="cls-3" d="m103.27,189.48c0,1.44.72.92.72,1.56,0,.83-1.55.83-2.1.83-2.1,0-2.18-.48-2.18-.77,0-.44.5-.46.65-.84.16-.43.18-2.2.05-2.65-.11-.43-.73-.29-.73-.84,0-.87,3.1-1.23,3.22-1.23.37,0,.38.28.38.54v3.4Zm-2.41-4.33c-.51,0-1.06-.23-1.06-.83,0-.8,1.61-1.13,2.23-1.13.49,0,1.18.16,1.18.77,0,.95-1.66,1.19-2.35,1.19Z"/>
        <path class="cls-3" d="m104.35,188.92c0-2.18,1.91-3.41,3.93-3.41,2.13,0,3.35,1.67,3.35,3.18,0,2-2.14,3.22-3.94,3.22s-3.34-1.06-3.34-2.99Zm3.4-1.97c-.4,0-.62.38-.6.73.05.77.27,2.64,1.11,2.69.46.03.56-.37.56-.76,0-.55-.24-2.67-1.07-2.67Z"/>
        <path class="cls-3" d="m115.47,189.71c0,1.18.42.97.42,1.44,0,.76-1.62.73-2.12.73s-1.73,0-1.73-.73c0-.58.56-.06.6-1.26l.05-1.83c.02-.9-.72-.61-.72-1.26s2.8-1.26,3.05-1.26c.27,0,.44.23.44.48,0,.07-.01.15-.01.22,0,.15.06.32.24.32.19,0,.3-.26.55-.51.24-.24.61-.5,1.3-.5,2.52,0,2.1,2.47,2.22,4.33.06.96.56.74.56,1.27,0,.22.05.73-2.24.73-.44,0-1.61.02-1.61-.66,0-.44.4-.23.46-1.03.06-.87.4-2.81-.74-2.81-.78,0-.71.84-.71,1.39v.94Z"/>
      </g>
      <path class="cls-12" d="m68.08,98.97s-.36-4.75,3.95-4.75,3.8,4.75,3.8,4.75"/>
      <path class="cls-12" d="m123.52,98.97s-.36-4.75,3.94-4.75,3.8,4.75,3.8,4.75"/>
      <path d="m100.95,111.07c0,1.99-.62,3.6-1.38,3.6s-1.38-1.61-1.38-3.6.62-3.6,1.38-3.6,1.38,1.61,1.38,3.6Z"/>
      <rect class="cls-9" x="18.67" y="56.06" width="9.52" height="9.52" transform="translate(-24.49 16.65) rotate(-26.27)"/>
      <rect class="cls-6" x="86.22" y="13.46" width="9.52" height="9.52" transform="translate(9.34 62.32) rotate(-39.71)"/>
      <rect class="cls-5" x="163.24" y="28.52" width="7.38" height="7.38" transform="translate(33.49 137.54) rotate(-49.21)"/>
      <rect class="cls-5" x="66.67" y="45.72" width="7" height="7" transform="translate(11.38 111.59) rotate(-81.74)"/>
      <rect class="cls-7" x="38.73" y="18.1" width="5.17" height="5.17" transform="translate(14.89 58.59) rotate(-81.72)"/>
      <rect class="cls-10" x=".35" y="78.39" width="5.17" height="5.17" transform="translate(-77.62 72.24) rotate(-81.74)"/>
      <rect class="cls-9" x="126.7" y=".35" width="5.17" height="5.17" transform="translate(107.77 130.44) rotate(-81.72)"/>
      <rect class="cls-10" x="109.01" y="48.79" width="5.17" height="5.17" transform="translate(1.41 105.7) rotate(-50.97)"/>
      <rect class="cls-6" x="159.55" y="85.53" width="8.32" height="8.32" transform="translate(-19.56 54.2) rotate(-17.76)"/>
      <rect class="cls-7" x="21.3" y="94.81" width="8.32" height="8.32" transform="translate(-52.12 32.45) rotate(-34.96)"/>
      <rect class="cls-8" x="131.36" y="36.53" width="5.85" height="5.85" transform="translate(75.9 166.66) rotate(-81.72)"/>
      <rect class="cls-10" x="183.42" y="80.98" width="5.85" height="5.85" transform="translate(76.48 256.22) rotate(-81.72)"/>
      <rect class="cls-9" x="174.09" y="55.54" width="7.42" height="7.42" transform="translate(3.36 127.77) rotate(-39.88)"/>
    </g>
  </g>
</svg>