<?xml version="1.0" encoding="UTF-8"?>
<svg id="Layer_2" data-name="Layer 2" xmlns="http://www.w3.org/2000/svg" xmlns:xlink="http://www.w3.org/1999/xlink" viewBox="0 0 427.91 387.3">
  <defs>
    <style>
      .cls-1 {
        fill: #0083ca;
      }

      .cls-2 {
        fill: url(#linear-gradient-2);
      }

      .cls-3 {
        fill: #fff;
      }

      .cls-4 {
        fill: #f26522;
      }

      .cls-5 {
        fill: url(#linear-gradient-6);
      }

      .cls-6 {
        fill: none;
        stroke: #005baa;
        stroke-linecap: round;
        stroke-linejoin: round;
        stroke-width: 1.46px;
      }

      .cls-7 {
        fill: url(#linear-gradient-5);
      }

      .cls-8 {
        fill: url(#linear-gradient-7);
      }

      .cls-9 {
        fill: url(#linear-gradient-9);
      }

      .cls-10 {
        fill: url(#linear-gradient-3);
      }

      .cls-11 {
        fill: #dcddde;
      }

      .cls-12 {
        fill: url(#linear-gradient);
      }

      .cls-13 {
        fill: url(#linear-gradient-4);
      }

      .cls-14 {
        fill: url(#linear-gradient-8);
      }
    </style>
    <linearGradient id="linear-gradient" x1="234.18" y1="285.83" x2="184.05" y2="296.25" gradientUnits="userSpaceOnUse">
      <stop offset="0" stop-color="#0083ca"/>
      <stop offset="1" stop-color="#006cb7"/>
    </linearGradient>
    <linearGradient id="linear-gradient-2" x1="102.87" y1="364.5" x2="102.87" y2="348.75" xlink:href="#linear-gradient"/>
    <linearGradient id="linear-gradient-3" x1="179.1" y1="366.45" x2="179.1" y2="349.37" xlink:href="#linear-gradient"/>
    <linearGradient id="linear-gradient-4" x1="72.79" y1="15.53" x2="84.99" y2="33.09" xlink:href="#linear-gradient"/>
    <linearGradient id="linear-gradient-5" x1="260.21" y1="35.32" x2="238.75" y2="51.42" xlink:href="#linear-gradient"/>
    <linearGradient id="linear-gradient-6" x1="43.72" y1="143.5" x2="62.92" y2="142.19" xlink:href="#linear-gradient"/>
    <linearGradient id="linear-gradient-7" x1="242.57" y1="221.73" x2="222.72" y2="208.06" xlink:href="#linear-gradient"/>
    <linearGradient id="linear-gradient-8" x1="153.59" y1="294.18" x2="153.59" y2="360.62" gradientUnits="userSpaceOnUse">
      <stop offset="0" stop-color="#fd0"/>
      <stop offset=".51" stop-color="#ffd003"/>
      <stop offset="1" stop-color="#ffcb05"/>
    </linearGradient>
    <linearGradient id="linear-gradient-9" x1="405.14" y1="238.99" x2="401.73" y2="255.59" xlink:href="#linear-gradient-8"/>
  </defs>
  <g id="Layer_1-2" data-name="Layer 1">
    <g>
      <path class="cls-11" d="m395.99,362.2c-2.35-.09-57.96-2.19-90.75,3.35-31.18,5.26-73.85-1.81-74.28-1.88-.45-.08-.9-.09-1.34-.07-19.74-3.81-52.1-6.3-88.68-6.3-60.12,0-108.86,6.72-108.86,15s48.74,15,108.86,15c47.05,0,87.12-4.11,102.33-9.87,9.14,1.03,21.73,2.08,34.94,2.08,9.7,0,19.73-.57,28.98-2.13,31.58-5.33,87.78-3.22,88.34-3.2.08,0,.16,0,.23,0,3.16,0,21.58-2.54,21.7-5.77.13-3.31-18.21-6.1-21.48-6.23Z"/>
      <g>
        <path class="cls-12" d="m382.93,258.69c-50.12-8.64-67.68,8.18-106.17,45.03l-3.16,3.03c-20.65,19.74-51.16,30.45-88.22,30.95-4.29.06-8.44-.02-12.39-.2-20.52-.93-35.48-4.47-36.23-4.65-10.48-2.52-16.93-13.06-14.41-23.54,2.52-10.47,13.02-16.92,23.5-14.42h0c.67.16,67.46,15.49,100.77-16.36l3.15-3.01c40.8-39.05,70.26-67.27,139.79-55.29l-6.63,38.46Z"/>
        <g>
          <path class="cls-2" d="m94.96,333.58l4.99,31.89s-20.58.66-17.44,11.96c3.14,11.3,56.96,4.88,36.36-10.93l1.99-32.92"/>
          <path class="cls-10" d="m187.02,333.58l-5,31.89s20.58.66,17.44,11.96c-3.14,11.3-56.95,4.88-36.36-10.93l-1.99-32.92"/>
        </g>
        <g>
          <path class="cls-13" d="m94.62,27.55c-.8,8-7.94,13.84-15.93,13.03-8-.8-13.84-7.94-13.04-15.94.8-8,7.94-13.84,15.95-13.03,7.99.8,13.82,7.94,13.02,15.94Z"/>
          <path class="cls-7" d="m264.3,44.57c-.8,8-7.94,13.84-15.94,13.03-8-.8-13.83-7.94-13.03-15.94.8-8,7.94-13.84,15.94-13.03,8,.8,13.83,7.94,13.03,15.94Z"/>
        </g>
        <path class="cls-1" d="m133.11,352.38c21.67,2.17,78.24-.17,84-57.68,10.39-103.61,44.76-136.72,49.2-181C276.88,8.26,168.38.62,168.38.62c0,0-107.86-14.06-118.43,91.38-4.44,44.28,22.66,83.55,12.27,187.17-5.77,57.51,49.21,71.04,70.89,73.21Z"/>
        <path class="cls-3" d="m183.77,86.82c-1,9.96-12.46,16.96-25.6,15.64-13.15-1.32-22.99-10.46-21.99-20.42,1-9.96,12.46-16.96,25.6-15.64,13.14,1.32,22.98,10.46,21.99,20.41Z"/>
        <path d="m169.17,74.51c-.27,2.69-4.12,4.51-8.6,4.06-4.48-.45-7.9-3-7.63-5.69.27-2.69,4.12-4.5,8.6-4.05,4.48.45,7.89,2.99,7.62,5.68Z"/>
        <path class="cls-5" d="m62.25,177.73s-38.67-10.82-59.93-46.49c0,0-7.89-13.91,5.45-20.26,13.33-6.36,26.62,31.47,56.41,38.79"/>
        <path class="cls-8" d="m237.28,179s27.47,29.3,27.16,70.83c0,0-.46,15.98-15.16,14.51-14.69-1.48-6.46-40.71-28.14-62.41"/>
        <path class="cls-6" d="m258.17,246.44s-2.31,9.3-5.73,8.46c-3.42-.84-.46-9.08-.46-9.08l-3.13-3.82"/>
        <path class="cls-14" d="m217.24,294.72c6.83-68.13,24.03-105.77,36.27-136.16-102.26-2.42-176.26-16.02-199.83-20.9,5.95,32.35,15.57,72.77,8.67,141.52-5.77,57.51,49.21,71.03,70.88,73.21,21.67,2.17,78.24-.17,84.01-57.67Z"/>
        <g>
          <path class="cls-3" d="m124.13,61.29c-.89,8.83-8.76,15.27-17.59,14.38-8.83-.89-15.27-8.76-14.38-17.59.88-8.83,8.76-15.27,17.59-14.38,8.83.88,15.27,8.76,14.38,17.59Z"/>
          <path d="m115.26,60.4c-.39,3.93-3.9,6.79-7.82,6.4-3.92-.39-6.79-3.9-6.4-7.83.39-3.93,3.9-6.79,7.83-6.4,3.93.39,6.79,3.9,6.4,7.82Z"/>
          <path class="cls-3" d="m231.67,72.07c-.88,8.83-8.76,15.27-17.59,14.38-8.83-.89-15.27-8.76-14.38-17.59.89-8.83,8.76-15.27,17.59-14.38,8.82.88,15.26,8.76,14.38,17.59Z"/>
          <path d="m222.8,71.18c-.39,3.93-3.9,6.79-7.82,6.4-3.93-.39-6.79-3.9-6.4-7.83.39-3.93,3.9-6.79,7.83-6.4,3.93.39,6.79,3.9,6.4,7.83Z"/>
        </g>
        <g>
          <path class="cls-4" d="m97.74,86.39c-.55,5.48-7.13,9.3-14.69,8.54-7.57-.76-13.26-5.81-12.71-11.29.55-5.48,7.13-9.3,14.7-8.54,7.57.76,13.25,5.81,12.7,11.29Z"/>
          <path class="cls-4" d="m247.99,101.46c-.55,5.48-7.13,9.3-14.7,8.54-7.57-.76-13.25-5.81-12.7-11.29.55-5.48,7.13-9.3,14.69-8.54,7.57.76,13.26,5.81,12.71,11.29Z"/>
        </g>
        <path class="cls-4" d="m140.63,277.31c41.32,4.14,65.58-40.68,44.29-56.7-20.03-15.06-38.64.41-38.64.41,0,0-15.16-18.86-37.79-8.07-24.05,11.47-9.18,60.22,32.14,64.36Z"/>
        <g>
          <path class="cls-3" d="m114.51,244.98c-.59.92-1.18,1.96-2.46,1.83-1.37-.14-1.65-.95-2.06-2.12l-3.67-10.89c-.55-1.61-.74-1.91-1.65-2.15-.47-.12-.67-.5-.62-.99.18-1.82,3.96-1.54,5.16-1.42,4.97.5,4.67,1.66,4.63,2.02-.09.9-1.23.83-1.3,1.47-.05.5.69,2.44,1.13,3.73.17.42.34,1.37.86,1.45.78.13,1.31-1.16,1.64-1.63.34-.54,1.64-2.56,1.7-3.12.09-.85-1.14-.74-1.05-1.69.15-1.47,3.13-1.15,4.07-1.05,2.98.3,3.43.89,3.34,1.72-.07.64-.57.9-1.14.91-1.03.02-1.12-.06-2.2,1.67l-6.41,10.26Z"/>
          <path class="cls-3" d="m130.65,243.99c-.28,2.79,1.22,1.92,1.09,3.17-.16,1.61-3.17,1.31-4.23,1.2-4.08-.41-4.15-1.35-4.09-1.92.09-.85,1.06-.8,1.42-1.51.39-.8.78-4.23.61-5.13-.13-.85-1.36-.71-1.25-1.77.17-1.68,6.25-1.79,6.49-1.76.71.07.68.62.63,1.11l-.66,6.61Zm-3.85-8.87c-1-.1-2.02-.66-1.9-1.82.16-1.56,3.35-1.89,4.55-1.77.95.1,2.27.54,2.15,1.72-.18,1.85-3.45,2-4.8,1.86Z"/>
          <path class="cls-3" d="m139.9,237.27c.42.11.79.25.96.26.24.03.43-.03.65-.1.22-.05.44-.1.65-.08,1.09.11,1.96,2.4,1.86,3.37-.06.64-.66,1.06-1.27,1-1.35-.14-1.92-2.08-2.96-2.19-.42-.04-.89.27-.93.72-.15,1.52,5.03,2.32,4.66,5.99-.22,2.22-2.53,3.54-4.99,3.3-.47-.05-1.15-.19-1.74-.34-.58-.13-1.1-.25-1.24-.27-.17-.02-.31,0-.48,0-.14,0-.29.02-.46,0-.47-.05-.7-.14-1-.55-.53-.72-.98-2.13-.89-3.03.06-.62.32-1.09,1.01-1.02,1.04.1,1.75,2.54,3.08,2.68.47.04.95-.14,1-.67.14-1.4-4.48-2.03-4.09-5.93.24-2.37,2.33-3.66,4.77-3.42.47.05.97.15,1.41.28Z"/>
          <path class="cls-3" d="m151.37,246.07c-.28,2.79,1.22,1.92,1.09,3.17-.16,1.61-3.17,1.31-4.24,1.2-4.07-.41-4.14-1.35-4.09-1.92.08-.85,1.06-.8,1.42-1.51.39-.8.78-4.23.61-5.13-.13-.85-1.37-.71-1.26-1.77.17-1.68,6.25-1.79,6.49-1.77.71.07.68.62.63,1.12l-.66,6.6Zm-3.85-8.87c-.99-.1-2.01-.66-1.9-1.81.16-1.56,3.35-1.89,4.55-1.77.95.1,2.26.54,2.15,1.72-.18,1.85-3.45,1.99-4.8,1.86Z"/>
          <path class="cls-3" d="m153.56,245.19c.42-4.24,4.38-6.26,8.29-5.87,4.14.42,6.18,3.9,5.89,6.83-.39,3.88-4.79,5.83-8.27,5.49-3.5-.35-6.28-2.71-5.9-6.45Zm6.99-3.17c-.78-.08-1.28.61-1.3,1.3-.06,1.5,0,5.19,1.63,5.45.89.14,1.16-.6,1.24-1.36.11-1.06.05-5.23-1.56-5.39Z"/>
          <path class="cls-3" d="m175.01,248.87c-.23,2.3.62,1.98.53,2.87-.15,1.47-3.29,1.1-4.26,1-.95-.09-3.36-.34-3.22-1.76.11-1.14,1.1,0,1.4-2.32l.45-3.54c.22-1.75-1.28-1.32-1.15-2.58.12-1.25,5.69-1.89,6.16-1.84.52.05.81.54.76,1.01-.02.14-.05.28-.07.42-.03.28.06.63.41.66.38.04.64-.44,1.16-.89.52-.43,1.28-.85,2.63-.72,4.9.49,3.59,5.21,3.47,8.83-.07,1.88.95,1.55.84,2.57-.04.43-.05,1.43-4.5.98-.85-.08-3.13-.27-3-1.59.09-.85.83-.37,1.1-1.9.29-1.67,1.33-5.39-.9-5.62-1.52-.15-1.54,1.49-1.64,2.56l-.18,1.82Z"/>
        </g>
        <path class="cls-9" d="m389.56,220.23s-5.3.55-6.37,6.98c-.92,5.54,2.58,8.48,2.58,8.48,0,0-3.75.52-4.38,3.98-.59,3.2,2.32,5.68,2.32,5.68,0,0-4.17.56-4.67,6.15-.5,5.6,3.9,7.18,3.9,7.18,0,0,41.41-6.61,44.8-11.35,3.29-4.6-38.17-27.11-38.17-27.11Z"/>
        <path d="m418.73,237.87c-1.02,2-3.06,7.12-1.52,13.84,5.4-1.48,9.54-3,10.52-4.36,1.13-1.59-3.04-5.29-9-9.47Z"/>
        <path d="m150.33,82.43l20.71,2.08s-1.38,14.19-11.78,13.15c-10.4-1.04-8.93-15.23-8.93-15.23Z"/>
        <path class="cls-1" d="m26.77,126s4.13-11.3,0-12.69c-4.13-1.39-7.7,8.04-7.7,8.04,0,0-9.43,2.28-4.23,13.99"/>
        <path class="cls-6" d="m20.94,117.52s-7.11,4.03-3.54,14.76"/>
      </g>
    </g>
  </g>
</svg>