<?xml version="1.0" encoding="UTF-8"?>
<svg id="Layer_2" data-name="Layer 2" xmlns="http://www.w3.org/2000/svg" xmlns:xlink="http://www.w3.org/1999/xlink" viewBox="0 0 168.5 219.28">
  <defs>
    <style>
      .cls-1 {
        fill: #0083ca;
      }

      .cls-2 {
        fill: url(#linear-gradient-2);
      }

      .cls-3 {
        fill: #fff;
      }

      .cls-4 {
        fill: #f26522;
      }

      .cls-5 {
        fill: #fd0;
      }

      .cls-6 {
        stroke: #005baa;
        stroke-width: .75px;
      }

      .cls-6, .cls-7 {
        fill: none;
        stroke-linecap: round;
        stroke-linejoin: round;
      }

      .cls-8 {
        fill: url(#linear-gradient-3);
      }

      .cls-9 {
        fill: url(#linear-gradient);
      }

      .cls-7 {
        stroke: #000;
        stroke-width: 2px;
      }

      .cls-10 {
        fill: #231f20;
      }

      .cls-11 {
        fill: url(#linear-gradient-4);
      }
    </style>
    <linearGradient id="linear-gradient" x1="37.2" y1="115.95" x2="31.04" y2="105.79" gradientUnits="userSpaceOnUse">
      <stop offset="0" stop-color="#0083ca"/>
      <stop offset="1" stop-color="#006cb7"/>
    </linearGradient>
    <linearGradient id="linear-gradient-2" x1="1455.17" y1="196.85" x2="1471.17" y2="200.85" gradientTransform="translate(-1260.21 842.6) rotate(-35.22)" xlink:href="#linear-gradient"/>
    <linearGradient id="linear-gradient-3" x1="43.01" y1="36.07" x2="49.76" y2="43.32" xlink:href="#linear-gradient"/>
    <linearGradient id="linear-gradient-4" x1="138.77" y1="36.3" x2="127.52" y2="46.55" xlink:href="#linear-gradient"/>
  </defs>
  <g id="Layer_1-2" data-name="Layer 1">
    <g>
      <path class="cls-1" d="m125.25,155.71s18.15,5.05,16.82,25.28c-1.33,20.22-33.27,25.36-46.63,14.29"/>
      <path class="cls-9" d="m30.05,99.81s2.46,13.16,6.65,13.58c4.18.42,9.52-6.79,9.52-6.79l4.17,10.9s-5.25,7.35-12.29,7.75c-7.04.4-14.21-.94-17.04-15.94"/>
      <path class="cls-1" d="m155.88,119.02c-.37.77-2.67,5.04-8.1,4.38-9.01-1.08-10.54-15.56-10.56-15.71-.31-3.59-3.47-6.21-7.05-5.9-3.58.32-6.22,3.47-5.9,7.05.03.32.2,2,.72,4.38.48,2.17,1.25,4.93,2.49,7.78,3.92,9.01,10.4,14.3,18.75,15.31,12.28,1.47,19.49-7.29,21.58-12.12,0,0,2.76-6.81-2.73-8.84-5.97-2.21-9.2,3.67-9.2,3.67Z"/>
      <path class="cls-6" d="m158.97,119.61s4.88-1.25,4.82.76c-.07,2.01-3.37,2.1-3.37,2.1v2.78"/>
      <path class="cls-2" d="m129.26,156.35c-15.89-10.41-31.91-14.62-46.34-12.15l-2.21.38c-26.91,4.61-39.2,6.72-58-11.32l-13.84,14.44c26.09,25.02,46.7,21.49,75.22,16.6l2.2-.38c11.57-1.97,23.3,3.37,32.22,9.28,3.98-4.98,8.48-10.64,12.44-15.7-.55-.38-1.1-.76-1.67-1.14Z"/>
      <g>
        <path class="cls-1" d="m73.88,193.89l2.56,16.34s-10.55.34-8.94,6.13c1.61,5.79,29.19,2.5,18.63-5.6l1.02-16.87"/>
        <path class="cls-1" d="m108.12,193.89l-2.56,16.34s10.54.34,8.94,6.13c-1.61,5.79-29.18,2.5-18.63-5.6l-1.02-16.87"/>
      </g>
      <g>
        <path class="cls-8" d="m54.42,40.32c0,4.12-3.34,7.46-7.46,7.46s-7.46-3.34-7.46-7.46,3.34-7.46,7.46-7.46,7.46,3.34,7.46,7.46Z"/>
        <path class="cls-11" d="m141.81,40.32c0,4.12-3.34,7.46-7.46,7.46s-7.46-3.34-7.46-7.46,3.34-7.46,7.46-7.46,7.46,3.34,7.46,7.46Z"/>
      </g>
      <path class="cls-1" d="m90.66,203.97c11.16,0,39.88-4.09,39.88-33.7,0-53.36,15.83-72,15.83-94.8,0-54.3-55.71-52.65-55.71-52.65,0,0-55.71-1.65-55.71,52.65,0,22.8,15.83,41.44,15.83,94.8,0,29.62,28.72,33.7,39.88,33.7Z"/>
      <path class="cls-3" d="m102.91,65.98c0,5.13-5.49,9.28-12.25,9.28s-12.26-4.15-12.26-9.28,5.49-9.29,12.26-9.29,12.25,4.16,12.25,9.29Z"/>
      <path d="m94.84,60.45c0,1.38-1.87,2.51-4.18,2.51s-4.18-1.12-4.18-2.51,1.87-2.5,4.18-2.5,4.18,1.12,4.18,2.5Z"/>
      <path class="cls-5" d="m130.61,170.27c0-35.09,6.84-55.16,11.53-71.28-52.26,3.99-90.69.84-102.96-.44,4.69,16.19,11.66,36.31,11.66,71.71,0,29.62,28.72,33.7,39.88,33.7s39.88-4.09,39.88-33.7Z"/>
      <path class="cls-3" d="m126.58,56.01c0,4.55-3.69,8.23-8.23,8.23s-8.23-3.69-8.23-8.23,3.69-8.23,8.23-8.23,8.23,3.69,8.23,8.23Z"/>
      <path class="cls-4" d="m136.41,70.16c0,2.82-3.16,5.11-7.06,5.11s-7.05-2.29-7.05-5.11,3.16-5.11,7.05-5.11,7.06,2.29,7.06,5.11Z"/>
      <path class="cls-4" d="m90.72,165.31c21.28,0,31.36-24.1,19.68-31.17-10.98-6.66-19.68,2.18-19.68,2.18,0,0-8.7-8.84-19.68-2.18-11.68,7.08-1.6,31.17,19.68,31.17Z"/>
      <g>
        <path class="cls-3" d="m75.75,150.17c-.26.5-.5,1.06-1.16,1.06-.71,0-.89-.4-1.16-.97l-2.43-5.37c-.37-.79-.48-.94-.95-1.01-.24-.04-.37-.22-.37-.48,0-.94,1.94-.99,2.56-.99,2.56,0,2.46.61,2.46.79,0,.46-.59.49-.59.82,0,.26.47,1.21.77,1.84.11.21.24.68.51.7.4.03.61-.66.76-.91.15-.29.71-1.39.71-1.68,0-.44-.62-.32-.62-.8,0-.76,1.54-.74,2.02-.74,1.54,0,1.79.28,1.79.71,0,.33-.24.49-.54.52-.52.06-.57.03-1.04.96l-2.74,5.56Z"/>
        <path class="cls-3" d="m83.92,148.84c0,1.44.72.92.72,1.56,0,.83-1.55.83-2.1.83-2.1,0-2.18-.48-2.18-.77,0-.44.5-.46.65-.84.16-.43.18-2.2.05-2.65-.11-.43-.73-.29-.73-.84,0-.87,3.1-1.23,3.22-1.23.37,0,.38.28.38.54v3.4Zm-2.41-4.33c-.51,0-1.06-.23-1.06-.83,0-.8,1.61-1.13,2.23-1.13.49,0,1.18.16,1.18.77,0,.95-1.66,1.19-2.35,1.19Z"/>
        <path class="cls-3" d="m88.3,144.93c.22.04.41.09.5.09.12,0,.22-.04.33-.09.11-.04.22-.07.33-.07.56,0,1.12,1.12,1.12,1.62,0,.33-.28.57-.6.57-.7,0-1.08-.96-1.62-.96-.22,0-.44.18-.44.41,0,.78,2.68.93,2.68,2.82,0,1.15-1.11,1.94-2.38,1.94-.24,0-.6-.04-.9-.09-.3-.04-.57-.07-.64-.07-.09,0-.16.01-.24.03-.07.01-.15.02-.23.02-.24,0-.37-.03-.54-.23-.3-.34-.61-1.04-.61-1.5,0-.32.11-.57.46-.57.54,0,1.02,1.21,1.71,1.21.24,0,.48-.12.48-.39,0-.72-2.39-.8-2.39-2.82,0-1.22,1-1.99,2.26-1.99.24,0,.5.03.73.07Z"/>
        <path class="cls-3" d="m94.6,148.84c0,1.44.72.92.72,1.56,0,.83-1.55.83-2.1.83-2.1,0-2.18-.48-2.18-.77,0-.44.5-.46.65-.84.16-.43.18-2.2.05-2.65-.11-.43-.73-.29-.73-.84,0-.87,3.1-1.23,3.22-1.23.37,0,.38.28.38.54v3.4Zm-2.41-4.33c-.51,0-1.06-.23-1.06-.83,0-.8,1.61-1.13,2.23-1.13.49,0,1.18.16,1.18.77,0,.95-1.66,1.19-2.35,1.19Z"/>
        <path class="cls-3" d="m95.67,148.27c0-2.18,1.91-3.41,3.93-3.41,2.13,0,3.35,1.67,3.35,3.18,0,2-2.14,3.22-3.94,3.22s-3.34-1.06-3.34-2.99Zm3.4-1.97c-.4,0-.62.38-.6.73.05.77.27,2.64,1.11,2.69.46.03.56-.37.56-.76,0-.55-.24-2.67-1.07-2.67Z"/>
        <path class="cls-3" d="m106.8,149.06c0,1.18.42.97.42,1.44,0,.76-1.62.73-2.12.73s-1.73,0-1.73-.73c0-.58.56-.06.6-1.26l.05-1.83c.02-.9-.72-.61-.72-1.26s2.8-1.26,3.05-1.26c.27,0,.44.23.44.48,0,.07-.01.15-.01.22,0,.15.06.32.24.32.19,0,.3-.26.55-.51.24-.24.61-.5,1.3-.5,2.52,0,2.1,2.47,2.22,4.33.06.96.56.74.56,1.27,0,.22.05.73-2.24.73-.44,0-1.61.02-1.61-.66,0-.44.4-.23.46-1.03.06-.87.4-2.81-.74-2.81-.78,0-.71.84-.71,1.39v.94Z"/>
      </g>
      <path class="cls-5" d="m8.86,147.68s2.41,1.28,4.71-1.14c1.98-2.09,1.34-4.34,1.34-4.34,0,0,1.74.86,3-.44,1.16-1.19.65-3.08.65-3.08,0,0,1.93.96,3.75-1.27,1.81-2.23.4-4.17.4-4.17,0,0-19.48-9.07-22.28-8.03-2.72,1.01,8.43,22.46,8.43,22.46Z"/>
      <path d="m1.53,131.83c1.01-.56,3.34-2.15,4.61-5.44-2.71-.92-4.91-1.46-5.72-1.16-.94.35-.23,3.12,1.11,6.6Z"/>
      <path d="m92.27,70.42c0,1.99-.62,3.6-1.38,3.6s-1.38-1.61-1.38-3.6.62-3.6,1.38-3.6,1.38,1.61,1.38,3.6Z"/>
      <polyline class="cls-7" points="121.48 52.65 113.87 56.31 121.48 59.75"/>
      <path d="m72.92,78.37c-7.26,10.21-21.43,12.59-31.64,5.33-10.21-7.27-12.6-21.43-5.33-31.64,7.27-10.21,21.43-12.59,31.64-5.33,10.21,7.27,12.6,21.43,5.33,31.64Z"/>
      <path class="cls-1" d="m70.79,76.86c-6.43,9.03-18.96,11.14-27.99,4.71-9.03-6.43-11.14-18.96-4.71-27.99,6.43-9.03,18.96-11.14,27.99-4.71,9.03,6.43,11.14,18.96,4.71,27.99Z"/>
      <rect x="34.29" y="85.02" width="10.16" height="2.75" transform="translate(-53.85 68.39) rotate(-54.57)"/>
      <path d="m21.4,116.72c-.6.84-1.76,1.03-2.59.44l-1.78-1.27c-.84-.6-1.03-1.76-.44-2.59l16.35-22.97c.6-.84,1.75-1.03,2.59-.44l1.78,1.27c.84.6,1.03,1.75.44,2.59l-16.35,22.97Z"/>
      <path class="cls-1" d="m31.98,107.57c-3.57,5.01-9.56,6.86-13.39,4.14s-4.04-9-.47-14.01,9.56-6.87,13.39-4.14,4.04,9,.47,14.01Z"/>
      <path class="cls-4" d="m44.42,71.85c-3.14,0-5.92,1.07-7.72,2.72,1.42,2.69,3.45,5.11,6.1,7,2.24,1.59,4.7,2.66,7.22,3.23,2.55-1.29,4.22-3.42,4.22-5.84,0-3.93-4.4-7.11-9.83-7.11Z"/>
      <path class="cls-3" d="m71.2,59.21c0,6.33-5.13,11.47-11.46,11.47s-11.47-5.13-11.47-11.47,5.13-11.46,11.47-11.46,11.46,5.13,11.46,11.46Z"/>
      <path d="m64.83,59.21c0,2.82-2.28,5.1-5.1,5.1s-5.1-2.29-5.1-5.1,2.28-5.1,5.1-5.1,5.1,2.29,5.1,5.1Z"/>
      <path class="cls-10" d="m57.51.73c.7-.33,1.39-.55,2.07-.67.67-.08,1.31-.1,1.9.03.57.14,1.11.41,1.58.78.48.39.88.91,1.18,1.53.29.6.45,1.17.49,1.69.04.57,0,1.1-.12,1.59-.11.52-.24,1.03-.41,1.49l-.46,1.37c-.13.47-.22.9-.22,1.32-.03.43.06.86.24,1.24.16.34.19.65.1.96-.08.33-.33.6-.74.8-.24.12-.42.17-.61.14-.18,0-.35-.04-.49-.15-.14-.05-.25-.15-.34-.28-.11-.1-.16-.22-.22-.34-.25-.53-.4-1.02-.42-1.54-.03-.49,0-.98.08-1.49.08-.45.2-.95.37-1.45.14-.45.27-.92.35-1.43.07-.48.09-.99.07-1.51-.03-.49-.16-1.02-.43-1.57-.44-.91-.95-1.43-1.51-1.61-.57-.14-1.15-.07-1.75.22-.19.09-.41.26-.63.42-.22.22-.38.51-.5.86-.12.38-.16.84-.07,1.39.05.6.3,1.3.69,2.12.07.14.05.36-.03.61-.1.29-.46.58-1.09.88-.24.12-.42.17-.6.17-.17.02-.33-.02-.47-.13-.14-.05-.26-.17-.34-.34-.12-.12-.2-.29-.29-.48-.29-.6-.42-1.25-.42-1.92-.01-.64.11-1.26.34-1.88.22-.58.56-1.1,1.03-1.61.45-.48.99-.89,1.66-1.21Zm5.65,16.01c-.21-.43-.25-.88-.12-1.36.13-.42.38-.74.81-.95.41-.2.85-.2,1.28-.05.45.2.78.51.98.95.23.48.26.91.13,1.38-.15.43-.43.77-.84.96-.43.21-.85.2-1.25.04-.45-.2-.76-.49-.99-.97Z"/>
    </g>
  </g>
</svg>