<?xml version="1.0" encoding="UTF-8"?>
<svg id="Layer_2" data-name="Layer 2" xmlns="http://www.w3.org/2000/svg" xmlns:xlink="http://www.w3.org/1999/xlink" viewBox="0 0 152.02 224.7">
  <defs>
    <style>
      .cls-1, .cls-2 {
        fill: #0083ca;
      }

      .cls-3 {
        fill: url(#linear-gradient-2);
      }

      .cls-4 {
        fill: #fff;
      }

      .cls-5 {
        fill: #f26522;
      }

      .cls-6, .cls-2, .cls-7 {
        stroke-linecap: round;
        stroke-linejoin: round;
      }

      .cls-6, .cls-7 {
        fill: none;
        stroke: #000;
      }

      .cls-8 {
        fill: #fd0;
      }

      .cls-2 {
        stroke: #005baa;
      }

      .cls-9 {
        fill: url(#linear-gradient);
      }

      .cls-7 {
        stroke-width: 2px;
      }
    </style>
    <linearGradient id="linear-gradient" x1="115.26" y1="191.6" x2="91.26" y2="186.6" gradientUnits="userSpaceOnUse">
      <stop offset="0" stop-color="#0083ca"/>
      <stop offset="1" stop-color="#006cb7"/>
    </linearGradient>
    <linearGradient id="linear-gradient-2" x1="5.16" y1="45.51" x2="10.41" y2="50.51" xlink:href="#linear-gradient"/>
  </defs>
  <g id="Layer_1-2" data-name="Layer 1">
    <g>
      <path class="cls-9" d="m119.75,224.7l-5.14-19.33c4.38-1.2,14.32-5.51,16.83-11.13.64-1.42,1.23-3.81-.94-8.18-2.23-4.47-10.69-6.4-23.22-5.28-12.17,1.09-23.51,4.69-23.62,4.72l-6.12-19.04c5.78-1.86,56.91-17.39,70.87,10.68,5.51,11.06,3.72,19.89,1.25,25.35-7.11,15.73-27.6,21.58-29.91,22.19Z"/>
      <path class="cls-3" d="m17.79,49.7c.43,4.1-2.55,7.77-6.64,8.19-4.1.43-7.77-2.55-8.2-6.65-.43-4.1,2.55-7.77,6.65-8.19,4.1-.43,7.76,2.55,8.19,6.65Z"/>
      <path class="cls-1" d="m111.23,72.15c-5.62-54.01-60.86-46.6-60.86-46.6,0,0-55.58,4.12-49.96,58.13.66,6.38,2.55,12.31,5.02,18.72h0s0,.02,0,.02c2.73,7.05,6.17,14.69,9.53,24.14,3.33,10.22,5.9,21.35,4.36,28.34-3.49,15.74-.86,40.74,32.7,41.99,33.56,1.25,51.66-14.67,52.11-46.96.45-32.29,5.32-53.94,5.32-53.94h-.06c1.56-8.6,2.64-16.07,1.84-23.84Z"/>
      <polyline class="cls-6" points="68.03 11.66 74.7 13 67.2 17.83 75.7 18.95"/>
      <polyline class="cls-6" points="76.64 .5 84.17 3.19 74.62 7.54 84.32 10.29"/>
      <path class="cls-1" d="m30.56,178.99l-15.33,6.21s-2.73-10.19-8-7.31c-5.27,2.88,4.21,28.99,9.7,16.87l16.66-2.85"/>
      <path class="cls-4" d="m57.26,72.35c.48,4.59-4.59,8.88-11.32,9.58-6.73.7-12.58-2.45-13.05-7.04-.48-4.59,4.59-8.88,11.32-9.58,6.73-.7,12.58,2.45,13.05,7.04Z"/>
      <path d="m47.75,68.71c.14,1.38-1.6,2.69-3.89,2.93-2.3.24-4.27-.69-4.42-2.06-.14-1.38,1.6-2.69,3.9-2.92,2.29-.24,4.27.68,4.41,2.06Z"/>
      <path class="cls-8" d="m104.13,149.93c.45-32.29,5.32-53.94,5.32-53.94-51.57,9.38-90.11,10.22-102.45,10.22-.02,0-.04.02-.05.03,2.43,6,5.25,12.55,8.02,20.32,3.33,10.22,5.9,21.35,4.36,28.34-3.49,15.74-.86,40.74,32.7,41.99,33.56,1.25,51.66-14.67,52.11-46.96Z"/>
      <g>
        <path class="cls-4" d="m26.02,66.51c.47,4.52-2.81,8.57-7.34,9.04-4.52.47-8.57-2.81-9.04-7.34-.47-4.52,2.81-8.57,7.34-9.04,4.52-.47,8.57,2.81,9.04,7.34Z"/>
        <path class="cls-4" d="m79.86,60.91c.47,4.52-2.82,8.57-7.33,9.04-4.52.47-8.57-2.81-9.04-7.34-.47-4.52,2.81-8.57,7.34-9.04,4.52-.47,8.57,2.81,9.04,7.34Z"/>
      </g>
      <g>
        <path class="cls-5" d="m15.38,81.84c.29,2.8-2.61,5.4-6.49,5.81-3.87.4-7.26-1.54-7.55-4.35-.29-2.81,2.61-5.41,6.49-5.81,3.87-.4,7.25,1.54,7.54,4.35Z"/>
        <path class="cls-5" d="m91.1,73.96c.29,2.8-2.61,5.41-6.49,5.81-3.88.4-7.25-1.54-7.54-4.35-.29-2.81,2.61-5.41,6.49-5.81,3.88-.4,7.26,1.54,7.55,4.35Z"/>
      </g>
      <path d="m46.44,77.32c.16,1.55-.35,2.88-1.13,2.96-.79.08-1.56-1.11-1.72-2.66-.16-1.55.35-2.88,1.13-2.96.79-.08,1.55,1.11,1.72,2.66Z"/>
      <path class="cls-5" d="m53.46,168.57c21.24-1.17,29.98-25.78,17.94-32.21-11.33-6.04-19.53,3.26-19.53,3.26,0,0-9.17-8.35-19.77-1.1-11.27,7.71.12,31.21,21.36,30.04Z"/>
      <g>
        <path class="cls-4" d="m37.67,154.27c-.23.51-.44,1.09-1.1,1.12-.71.04-.91-.35-1.21-.91l-2.72-5.22c-.41-.77-.53-.91-1.01-.96-.25-.02-.38-.2-.39-.46-.05-.94,1.88-1.09,2.5-1.12,2.56-.14,2.49.47,2.5.66.03.46-.56.52-.54.85.01.26.54,1.18.87,1.8.12.2.28.67.55.67.4,0,.57-.69.71-.95.13-.3.63-1.43.61-1.72-.03-.44-.64-.28-.67-.77-.04-.76,1.49-.83,1.98-.85,1.53-.09,1.8.18,1.83.61.02.33-.22.5-.51.55-.52.09-.57.06-.98,1.02l-2.43,5.7Z"/>
        <path class="cls-4" d="m45.76,152.49c.08,1.44.77.88.8,1.52.04.83-1.5.91-2.05.95-2.09.12-2.2-.36-2.22-.65-.02-.44.47-.49.6-.88.13-.44.06-2.2-.1-2.65-.13-.42-.75-.25-.78-.8-.05-.87,3.03-1.4,3.15-1.41.37-.02.39.26.41.52l.19,3.4Zm-2.65-4.19c-.51.03-1.07-.17-1.1-.77-.04-.8,1.54-1.22,2.16-1.26.49-.03,1.19.1,1.22.71.05.95-1.59,1.28-2.29,1.32Z"/>
        <path class="cls-4" d="m49.92,148.36c.22.02.42.06.5.06.12,0,.22-.05.32-.1.11-.04.21-.09.33-.09.56-.03,1.18,1.06,1.21,1.56.02.33-.25.59-.56.61-.7.04-1.14-.9-1.67-.87-.22.01-.43.21-.41.44.04.78,2.73.78,2.83,2.66.06,1.14-1,2-2.27,2.07-.24.01-.6,0-.9-.04-.31-.02-.58-.04-.65-.04-.09,0-.16.02-.24.04-.07.02-.15.03-.23.04-.24.01-.37-.02-.55-.2-.32-.32-.67-1-.69-1.46-.02-.32.08-.58.43-.6.54-.03,1.09,1.15,1.77,1.11.24-.01.47-.15.45-.41-.04-.72-2.43-.67-2.54-2.68-.07-1.22.89-2.04,2.14-2.11.24-.01.5,0,.74.04Z"/>
        <path class="cls-4" d="m56.42,151.9c.08,1.44.77.88.8,1.52.05.83-1.5.91-2.05.94-2.09.12-2.2-.36-2.22-.65-.02-.44.47-.49.6-.88.13-.44.06-2.2-.1-2.64-.13-.42-.75-.25-.78-.8-.05-.87,3.02-1.4,3.15-1.41.37-.02.39.26.41.52l.19,3.39Zm-2.65-4.19c-.51.03-1.07-.17-1.1-.77-.04-.8,1.54-1.22,2.16-1.26.49-.03,1.19.1,1.22.7.05.95-1.59,1.28-2.28,1.32Z"/>
        <path class="cls-4" d="m57.46,151.28c-.12-2.18,1.72-3.51,3.73-3.62,2.13-.12,3.44,1.48,3.52,2.99.11,1.99-1.96,3.33-3.75,3.43-1.8.1-3.39-.88-3.5-2.8Zm3.29-2.16c-.4.02-.6.41-.56.76.09.77.41,2.63,1.26,2.63.46,0,.54-.4.52-.79-.03-.55-.39-2.65-1.22-2.61Z"/>
        <path class="cls-4" d="m68.61,151.45c.06,1.18.47.95.49,1.41.04.75-1.58.82-2.08.85-.49.03-1.73.1-1.77-.64-.03-.58.56-.09.53-1.29l-.05-1.83c-.03-.9-.75-.57-.79-1.21-.04-.65,2.73-1.41,2.97-1.42.27-.02.45.21.46.45,0,.07,0,.15,0,.22,0,.15.08.31.26.3.2-.01.29-.27.52-.54.23-.26.58-.53,1.28-.57,2.52-.14,2.23,2.36,2.45,4.2.12.96.6.71.63,1.23.01.22.09.73-2.2.86-.44.02-1.61.11-1.64-.57-.03-.44.39-.25.41-1.05.01-.87.25-2.83-.9-2.77-.78.04-.66.88-.63,1.42l.05.94Z"/>
      </g>
      <path class="cls-1" d="m61.66,143.77c0-.06-.02-.12-.03-.17-.63-3.68,1.85-7.16,5.52-7.79,6.81-1.16,11.57-3.78,14.16-7.79,4.15-6.42,1.99-14.93,1.97-15.02-.96-3.57,1.2-7.29,4.78-8.25,3.58-.96,7.27,1.13,8.25,4.71.16.57,3.78,14.2-3.56,25.73-4.71,7.4-12.56,12.09-23.33,13.92-3.62.62-7.05-1.77-7.76-5.35Z"/>
      <path class="cls-2" d="m91.49,50.48c2.14-1.5,3.43-4.09,3.14-6.88-.43-4.1-4.09-7.07-8.19-6.65-3.02.31-5.43,2.39-6.31,5.1"/>
      <path class="cls-8" d="m119.79,224.68s2.39-1.33,1.6-4.6c-.68-2.81-2.93-3.5-2.93-3.5,0,0,1.67-1,1.26-2.77-.37-1.63-2.24-2.23-2.24-2.23,0,0,1.86-1.1.96-3.86-.89-2.75-3.29-2.62-3.29-2.62,0,0-18.23,11.48-18.87,14.41-.62,2.84,23.51,5.16,23.51,5.16Z"/>
      <path d="m102.45,222.19c.08-1.15,0-3.99-2.07-6.87-2.25,1.79-3.9,3.34-4.09,4.19-.21.98,2.5,1.89,6.16,2.68Z"/>
      <path class="cls-7" d="m21.64,66.51s.97,4.67-3.3,5.22c-4.27.56-4.39-4.22-4.39-4.22"/>
      <path class="cls-7" d="m75.66,60.16s.97,4.67-3.3,5.22c-4.27.56-4.39-4.22-4.39-4.22"/>
      <path class="cls-1" d="m8.58,110.31c-3.09,4.07-9.44,14.59-3.84,26.73,6.38,13.82,24.63,14.33,25.4,14.35h.13c3.52,0,6.4-2.81,6.48-6.34.09-3.58-2.75-6.55-6.33-6.65-.11,0-10.96-.49-13.88-6.79-.48-1.05-.89-3.07-.89-3.07,0,0-4.73-13.16-7.07-18.21Z"/>
      <ellipse class="cls-1" cx="70.03" cy="190.51" rx="7.5" ry="11.38"/>
    </g>
  </g>
</svg>