<?xml version="1.0" encoding="UTF-8"?>
<svg id="Layer_2" data-name="Layer 2" xmlns="http://www.w3.org/2000/svg" xmlns:xlink="http://www.w3.org/1999/xlink" viewBox="0 0 105.86 73.72">
  <defs>
    <style>
      .cls-1 {
        fill: #645FAA;
      }

      .cls-2 {
        fill: url(#linear-gradient-2);
      }

      .cls-3 {
        fill: #fff;
      }

      .cls-4 {
        fill: #f26522;
      }

      .cls-5 {
        stroke-width: .5px;
      }

      .cls-5, .cls-6 {
        fill: none;
        stroke: #000;
        stroke-linecap: round;
        stroke-linejoin: round;
      }

      .cls-7 {
        fill: #ffe100;
      }

      .cls-8 {
        fill: url(#linear-gradient);
      }
    </style>
    <linearGradient id="linear-gradient" x1="7.43" y1="12.66" x2="15.74" y2="20.97" gradientUnits="userSpaceOnUse">
      <stop offset="0" stop-color="#645FAA"/>
      <stop offset="1" stop-color="#414099"/>
    </linearGradient>
    <linearGradient id="linear-gradient-2" x1="99.96" y1="11.99" x2="87.92" y2="22.13" xlink:href="#linear-gradient"/>
  </defs>
  <g id="Layer_1-2" data-name="Layer 1">
    <g>
      <g>
        <path class="cls-8" d="m18.5,16.64c0,3.91-3.17,7.09-7.08,7.09s-7.09-3.17-7.09-7.09,3.17-7.09,7.09-7.09,7.08,3.17,7.08,7.09Z"/>
        <path class="cls-2" d="m101.52,16.64c0,3.91-3.17,7.09-7.09,7.09s-7.08-3.17-7.08-7.09,3.17-7.09,7.08-7.09,7.09,3.17,7.09,7.09Z"/>
      </g>
      <path class="cls-1" d="m101.86,72.09c2.28-7.85,4-14.73,4-22.06C105.86-1.55,52.93.01,52.93.01,53.87.04,0-2.53,0,50.03c0,7.23,1.68,14.02,3.91,21.73,16.97,1.45,52.14,3.4,97.95.33Z"/>
      <path class="cls-3" d="m64.57,40.14c0,4.38-5.21,7.94-11.64,7.94s-11.64-3.55-11.64-7.94,5.21-7.94,11.64-7.94,11.64,3.55,11.64,7.94Z"/>
      <path d="m56.9,35.77c0,1.32-1.78,2.38-3.97,2.38s-3.97-1.07-3.97-2.38,1.78-2.38,3.97-2.38,3.97,1.07,3.97,2.38Z"/>
      <g>
        <path class="cls-4" d="m22.87,44.99c0,2.68-3,4.85-6.7,4.85s-6.7-2.17-6.7-4.85,3-4.85,6.7-4.85,6.7,2.17,6.7,4.85Z"/>
        <path class="cls-4" d="m96.39,44.99c0,2.68-3,4.85-6.7,4.85s-6.7-2.17-6.7-4.85,3-4.85,6.7-4.85,6.7,2.17,6.7,4.85Z"/>
      </g>
      <path class="cls-7" d="m15.23,31.55c10.13,2.06,11.39,12.09,11.39,12.09,0,0,1.26-10.03,11.39-12.09-10.13-2.06-11.39-12.09-11.39-12.09,0,0-1.26,10.03-11.39,12.09Z"/>
      <path class="cls-7" d="m67.96,31.55c10.13,2.06,11.39,12.09,11.39,12.09,0,0,1.26-10.03,11.39-12.09-10.13-2.06-11.39-12.09-11.39-12.09,0,0-1.26,10.03-11.39,12.09Z"/>
      <path class="cls-6" d="m59.24,38.67c-1.57-.95-3.2.61-3.2.61-.03.04-.85,1.08-3.04,1.08s-3.01-1.03-3.04-1.08c0,0-1.63-1.56-3.2-.61-1.81,1.1-.81,3.16-.81,3.16.21.34,2.17,3.27,7.04,3.27s6.84-2.94,7.04-3.27c0,0,1-2.06-.81-3.16Z"/>
      <line class="cls-5" x1="53.01" y1="40.36" x2="53.01" y2="44.99"/>
      <g>
        <line class="cls-5" x1="49.83" y1="39.8" x2="48.09" y2="43.64"/>
        <line class="cls-5" x1="56.18" y1="39.8" x2="57.93" y2="43.64"/>
      </g>
    </g>
  </g>
</svg>
