<?xml version="1.0" encoding="UTF-8"?>
<svg id="Layer_2" data-name="Layer 2" xmlns="http://www.w3.org/2000/svg" xmlns:xlink="http://www.w3.org/1999/xlink" viewBox="0 0 105.86 73.71">
  <defs>
    <style>
      .cls-1 {
        fill: #645FAA;
      }

      .cls-2 {
        fill: url(#linear-gradient-2);
      }

      .cls-3 {
        fill: #fff;
      }

      .cls-4 {
        fill: #f26522;
      }

      .cls-5, .cls-6 {
        fill: none;
        stroke: #000;
        stroke-linecap: round;
        stroke-linejoin: round;
      }

      .cls-7 {
        fill: #f69679;
      }

      .cls-8 {
        fill: url(#linear-gradient);
      }

      .cls-6 {
        stroke-width: 2px;
      }
    </style>
    <linearGradient id="linear-gradient" x1="7.63" y1="12.77" x2="15.39" y2="20.69" gradientUnits="userSpaceOnUse">
      <stop offset="0" stop-color="#645FAA"/>
      <stop offset="1" stop-color="#414099"/>
    </linearGradient>
    <linearGradient id="linear-gradient-2" x1="98.74" y1="13.32" x2="89.08" y2="20.76" xlink:href="#linear-gradient"/>
  </defs>
  <g id="Layer_1-2" data-name="Layer 1">
    <g>
      <g>
        <path class="cls-8" d="m18.5,16.63c0,3.91-3.17,7.09-7.08,7.09s-7.09-3.17-7.09-7.09,3.17-7.09,7.09-7.09,7.08,3.17,7.08,7.09Z"/>
        <path class="cls-2" d="m101.52,16.63c0,3.91-3.17,7.09-7.09,7.09s-7.08-3.17-7.08-7.09,3.17-7.09,7.08-7.09,7.09,3.17,7.09,7.09Z"/>
      </g>
      <path class="cls-1" d="m101.86,72.08c2.28-7.85,4-14.73,4-22.06C105.86-1.56,52.93,0,52.93,0,52.93,0,0-1.56,0,50.02c0,7.23,1.68,14.02,3.91,21.73,16.97,1.45,52.14,3.4,97.95.33Z"/>
      <path class="cls-3" d="m64.57,40.13c0,4.38-5.21,7.94-11.64,7.94s-11.64-3.55-11.64-7.94,5.21-7.94,11.64-7.94,11.64,3.55,11.64,7.94Z"/>
      <path d="m56.9,35.76c0,1.32-1.78,2.38-3.97,2.38s-3.97-1.07-3.97-2.38,1.78-2.38,3.97-2.38,3.97,1.07,3.97,2.38Z"/>
      <g>
        <path class="cls-3" d="m34.44,31.54c0,4.32-3.5,7.82-7.82,7.82s-7.82-3.5-7.82-7.82,3.5-7.82,7.82-7.82,7.82,3.5,7.82,7.82Z"/>
        <path class="cls-3" d="m87.05,31.54c0,4.32-3.5,7.82-7.82,7.82s-7.82-3.5-7.82-7.82,3.5-7.82,7.82-7.82,7.82,3.5,7.82,7.82Z"/>
      </g>
      <g>
        <path class="cls-4" d="m22.87,44.98c0,2.68-3,4.85-6.7,4.85s-6.7-2.17-6.7-4.85,3-4.85,6.7-4.85,6.7,2.17,6.7,4.85Z"/>
        <path class="cls-4" d="m96.39,44.98c0,2.68-3,4.85-6.7,4.85s-6.7-2.17-6.7-4.85,3-4.85,6.7-4.85,6.7,2.17,6.7,4.85Z"/>
      </g>
      <polyline class="cls-6" points="23.89 28.06 31.12 31.54 23.89 35.76"/>
      <polyline class="cls-6" points="82.14 28.06 74.91 31.54 82.14 35.76"/>
      <path class="cls-7" d="m54.43,43.03s-1.41-2.26-.12-3.24c1.09-.83,2.92,1.12,2.92,1.12"/>
      <path class="cls-5" d="m48.18,39.28s.03,3.91,4.73,3.91,4.76-3.91,4.76-3.91"/>
    </g>
  </g>
</svg>
