<?xml version="1.0" encoding="UTF-8"?>
<svg id="Layer_2" data-name="Layer 2" xmlns="http://www.w3.org/2000/svg" xmlns:xlink="http://www.w3.org/1999/xlink" viewBox="0 0 105.85 73.71">
  <defs>
    <style>
      .cls-1 {
        fill: #645FAA;
      }

      .cls-2 {
        fill: url(#linear-gradient-2);
      }

      .cls-3 {
        fill: #fff;
      }

      .cls-4 {
        fill: #f26522;
      }

      .cls-5 {
        fill: url(#linear-gradient);
      }

      .cls-6 {
        fill: none;
        stroke: #000;
        stroke-linecap: round;
        stroke-linejoin: round;
        stroke-width: 2px;
      }
    </style>
    <linearGradient id="linear-gradient" x1="7.38" y1="12.75" x2="15.78" y2="20.83" gradientUnits="userSpaceOnUse">
      <stop offset="0" stop-color="#645FAA"/>
      <stop offset="1" stop-color="#414099"/>
    </linearGradient>
    <linearGradient id="linear-gradient-2" x1="99.24" y1="12.52" x2="89.26" y2="21.07" xlink:href="#linear-gradient"/>
  </defs>
  <g id="Layer_1-2" data-name="Layer 1">
    <g>
      <g>
        <path class="cls-5" d="m18.5,16.63c0,3.91-3.17,7.09-7.08,7.09s-7.09-3.17-7.09-7.09,3.17-7.09,7.09-7.09,7.08,3.17,7.08,7.09Z"/>
        <path class="cls-2" d="m101.52,16.63c0,3.91-3.17,7.09-7.09,7.09s-7.09-3.17-7.09-7.09,3.17-7.09,7.09-7.09,7.09,3.17,7.09,7.09Z"/>
      </g>
      <path class="cls-1" d="m101.86,72.08c2.28-7.85,4-14.73,4-22.06C105.85-1.56,52.93,0,52.93,0,52.93,0,0-1.56,0,50.02c0,7.23,1.68,14.02,3.91,21.73,16.97,1.45,52.14,3.4,97.95.33Z"/>
      <path class="cls-3" d="m64.57,40.13c0,4.38-5.21,7.94-11.64,7.94s-11.64-3.55-11.64-7.94,5.21-7.94,11.64-7.94,11.64,3.55,11.64,7.94Z"/>
      <path d="m56.9,35.76c0,1.32-1.78,2.38-3.97,2.38s-3.97-1.07-3.97-2.38,1.78-2.38,3.97-2.38,3.97,1.07,3.97,2.38Z"/>
      <path class="cls-3" d="m34.44,31.54c0,4.32-3.5,7.82-7.82,7.82s-7.82-3.5-7.82-7.82,3.5-7.82,7.82-7.82,7.82,3.5,7.82,7.82Z"/>
      <path class="cls-3" d="m87.05,31.54c0,4.32-3.5,7.82-7.82,7.82s-7.82-3.5-7.82-7.82,3.5-7.82,7.82-7.82,7.82,3.5,7.82,7.82Z"/>
      <g>
        <path class="cls-4" d="m22.87,44.98c0,2.68-3,4.85-6.7,4.85s-6.7-2.17-6.7-4.85,3-4.85,6.7-4.85,6.7,2.17,6.7,4.85Z"/>
        <path class="cls-4" d="m96.39,44.98c0,2.68-3,4.85-6.71,4.85s-6.7-2.17-6.7-4.85,3-4.85,6.7-4.85,6.71,2.17,6.71,4.85Z"/>
      </g>
      <path class="cls-6" d="m22.87,33.38s-.34-4.51,3.75-4.51,3.62,4.51,3.62,4.51"/>
      <path class="cls-6" d="m75.55,33.38s-.34-4.51,3.75-4.51,3.61,4.51,3.61,4.51"/>
      <path d="m48.21,40.13h10.13s.02,6.94-5.07,6.94-5.07-6.94-5.07-6.94Z"/>
    </g>
  </g>
</svg>
